<?xml version="1.0" encoding="UTF-8"?>
<!DOCTYPE svg PUBLIC "-//W3C//DTD SVG 1.0//EN" "http://www.w3.org/TR/2001/REC-SVG-20010904/DTD/svg10.dtd">
<svg xmlns="http://www.w3.org/2000/svg" width="100%" height="100%">
    <desc></desc>
    
    <svg width="2000" height="2000">
        <ellipse cx="250" cy="20" rx="220" ry="20" style="fill:pink" />
        <ellipse cx="220" cy="30" rx="280" ry="18" style="fill:white" />
        <ellipse cx="380" cy="440" rx="360" ry="50" style="fill:pink" />
        <ellipse cx="320" cy="420" rx="290" ry="30" style="fill:white" />
        <polygon points="330,35 300,120 375,60 285,60 360,120"
            style="fill:pink; stroke:purple; opacity:0.1; stroke-width:5;fill-rule:evenodd;" />
        <ellipse cx="120" cy="80" rx="30" ry="20"
            style="fill:pink;stroke:purple; opacity:0.4; stroke-width:2" />
        <ellipse cx="222" cy="167" rx="30" ry="20"
            style="fill:pink;stroke:purple; opacity:0.35; stroke-width:2" />
        <ellipse cx="320" cy="285" rx="30" ry="20"
            style="fill:pink;stroke:purple; opacity:0.3; stroke-width:2" />
        <text x="308" y="75" fill="purple">Result</text>
        <text x="0" y="80" fill="purple">Num.</text>
        <text x="10" y="110" fill="purple">50</text>
        <text x="10" y="197" fill="purple">35</text>
        <text x="10" y="313" fill="purple">15</text>
        <text x="10" y="400" fill="purple">0</text>
        <text x="105" y="85" fill="purple">Curly</text>
        <text x="205" y="172" fill="purple">Larry</text>
        <text x="305" y="288" fill="purple">Moe</text>
        <rect x="100" y="110" width="50" height="290"
            style="fill:pink;stroke:purple;stroke-width:5;opacity:0.5" />
        <rect x="200" y="197" width="50" height="203"
            style="fill:pink;stroke:purple;stroke-width:5;opacity:0.4" />
        <rect x="300" y="313" width="50" height="87"
            style="fill:pink;stroke:purple;stroke-width:5;opacity:0.3" />
        <line x1="50" y1="400" x2="50" y2="50" style="stroke:purple;stroke-width:5" />
        <line x1="500" y1="400" x2="50" y2="400" style="stroke:purple;stroke-width:5" />
        
    </svg>
</svg>

